<svg width="19" height="18" viewBox="0 0 19 18" fill="none" xmlns="http://www.w3.org/2000/svg">
<g clip-path="url(#clip0_13_689)">
<path d="M10.6357 12.426C10.7906 12.4971 10.9651 12.5134 11.1305 12.4721C11.2959 12.4308 11.4422 12.3344 11.5455 12.1987L11.8117 11.85C11.9514 11.6637 12.1326 11.5125 12.3409 11.4084C12.5492 11.3042 12.7789 11.25 13.0117 11.25H15.2617C15.6595 11.25 16.0411 11.408 16.3224 11.6893C16.6037 11.9706 16.7617 12.3522 16.7617 12.75V15C16.7617 15.3978 16.6037 15.7794 16.3224 16.0607C16.0411 16.342 15.6595 16.5 15.2617 16.5C11.6813 16.5 8.24752 15.0777 5.71578 12.5459C3.18404 10.0142 1.76172 6.58042 1.76172 3C1.76172 2.60218 1.91975 2.22064 2.20106 1.93934C2.48236 1.65804 2.86389 1.5 3.26172 1.5H5.51172C5.90954 1.5 6.29107 1.65804 6.57238 1.93934C6.85368 2.22064 7.01172 2.60218 7.01172 3V5.25C7.01172 5.48287 6.9575 5.71254 6.85336 5.92082C6.74922 6.1291 6.59801 6.31028 6.41172 6.45L6.06072 6.71325C5.92303 6.81838 5.82598 6.96794 5.78606 7.13651C5.74614 7.30509 5.76581 7.48228 5.84172 7.638C6.86673 9.7199 8.55254 11.4036 10.6357 12.426Z" stroke="white" stroke-width="2" stroke-linecap="round" stroke-linejoin="round"/>
</g>
<defs>
<clipPath id="clip0_13_689">
<rect width="18" height="18" fill="white" transform="translate(0.261719)"/>
</clipPath>
</defs>
</svg>
